<svg width="1060" height="611" viewBox="0 0 1060 611" fill="none" xmlns="http://www.w3.org/2000/svg">
<g clip-path="url(#clip0)">
<path fill-rule="evenodd" clip-rule="evenodd" d="M0.457256 607.089C0.457256 592.915 0.916749 561.501 0.916749 528.42C0.916749 490.526 0.916749 452.631 0.916749 414.736C0.916749 386.118 0.916749 357.5 0.916749 328.882C0.916749 322.559 -1.92208 313.73 2.39136 308.634C3.88378 306.869 6.23818 305.549 9.86417 304.94C36.5783 300.457 63.5346 293.98 90.6404 289.72C116.621 285.642 146.444 281.735 171.905 289.293C211.584 301.079 233.112 333.875 232.677 365.592C232.189 401.437 213.315 434.72 194.679 466.851C182.925 487.12 166.918 506.742 162.273 530.257C156.952 557.205 175.951 574.735 202.156 575.39C238.27 576.29 271.356 556.818 301.575 539.324C330.341 522.67 356.389 501.827 384.72 484.494C410.65 468.623 433.361 460.228 464.175 463.698C516.032 469.537 558.479 505.866 585.004 548.943C593.001 561.924 603.968 578.607 604 594.3C604 595.577 603.982 611 604 611L0.457256 607.089Z" fill="#12C35A"/>
<path fill-rule="evenodd" clip-rule="evenodd" d="M1053.63 -126C1057.62 -113.428 1055.37 -87.4475 1055.72 -76.0336C1059.25 39.5679 1082.71 218.75 1004.19 267.842C974.053 286.683 934.202 276.727 897.097 257.536C826.065 220.798 757.638 166.244 685.481 146.81C592.716 121.848 594.955 244.303 640.201 346.712C680.781 438.547 736.139 498.652 780.958 582.129C804.899 626.73 842.03 712.218 803.578 724.983L1274.05 568.812L1053.63 -126Z" fill="#12C35A"/>
</g>
<defs>
<clipPath id="clip0">
<rect width="1060" height="611" fill="white"/>
</clipPath>
</defs>
</svg>
