<svg width="240" height="324" viewBox="0 0 240 324" fill="none" xmlns="http://www.w3.org/2000/svg">
<path fill-rule="evenodd" clip-rule="evenodd" d="M55.2055 285.479C57.7346 285.636 60.2636 285.759 62.7923 285.853C95.8622 287.086 128.905 283.315 161.955 282.49C173.464 282.186 184.914 282.338 196.394 283.262C197.519 283.353 198.805 282.142 198.667 280.989C196.546 262.674 193.892 244.408 192.517 226.019C192.516 225.046 192.642 224.075 192.976 223.159C193.039 223.087 193.365 222.281 193.656 222.231C193.561 222.301 193.991 222.178 193.717 222.199C195.377 221.927 197.005 220.135 195.8 218.42C183.392 199.395 166.454 182.03 161.005 159.433C159.717 153.324 155.067 152.946 150.112 150.426C148.567 149.506 144.787 146.959 144.172 145.188C142.702 138.804 145.29 132.55 137.73 129.968C132.74 128.583 123.919 127.412 118.869 128.872C112.71 130.923 113.171 137.867 109.598 142.644C107.75 145.407 104.6 149.19 101.691 149.613C100.282 149.819 99.2434 146.966 97.8357 147.162C75.8947 152.493 46.0016 188.859 36.5715 208.99C34.4464 215.326 41.3 213.415 40.879 219.783C40.3599 231.864 39.2246 247.329 39.8979 259.425C40.5285 266.445 40.0619 273.8 42.2432 280.557C41.6561 281.27 42.4997 281.99 43.188 282.3C44.0552 283.776 52.5888 285.275 55.2055 285.479Z" fill="white"/>
<path fill-rule="evenodd" clip-rule="evenodd" d="M112.327 135.035C112.898 132.467 116.982 133.569 116.282 136.126C115.198 140.08 112.951 143.817 109.777 146.44C107.327 148.465 103.987 150.271 100.674 150.605C100.984 150.908 101.282 151.231 101.595 151.539C102.301 152.241 103.051 152.892 103.824 153.518C105.413 154.803 107.065 155.959 108.869 156.927C116.075 160.795 124.216 161.687 132.265 160.786C136.084 160.359 139.961 159.634 143.553 158.237C145.218 157.591 146.836 156.741 148.264 155.667L148.638 155.387C149.389 154.819 150.391 154.019 150.86 153.144C149.432 153.465 147.626 151.943 146.635 151.058C145.551 150.086 144.639 148.832 143.965 147.547C142.644 145.026 141.945 141.773 143.052 139.07C143.126 138.89 143.362 138.92 143.384 139.114C143.711 142.266 144.56 145.22 146.821 147.554C147.825 148.587 149.027 149.454 150.339 150.056L150.523 150.141C151.082 150.399 151.671 150.703 151.906 151.256C151.997 151.246 152.088 151.254 152.174 151.278C152.253 151.299 152.324 151.322 152.394 151.347C152.238 151.041 152.156 150.679 152.17 150.252C152.225 148.597 154.497 148.547 154.811 150.02C154.754 149.826 154.678 150.014 154.822 150.073C154.819 150.056 154.815 150.037 154.811 150.02L154.815 150.036V150.036L154.824 150.073L154.822 150.073C154.827 150.1 154.832 150.127 154.835 150.155L154.838 150.192L154.836 150.161C154.834 150.138 154.832 150.118 154.829 150.099L154.824 150.073C154.845 150.083 154.874 150.09 154.908 150.09L154.922 150.095C154.975 150.118 155.162 150.205 155.217 150.227C155.595 150.367 156.017 150.411 156.404 150.531C157.243 150.789 157.982 151.216 158.494 151.943C158.861 152.465 159.066 153.063 159.151 153.685C162.863 155.471 166.376 157.791 169.319 160.664C175.887 167.072 180.467 175.092 184.226 183.394C186.139 187.621 187.844 191.937 189.511 196.265L189.774 196.948C191.561 201.6 193.142 206.302 193.53 211.303C193.566 211.751 193.418 212.172 193.163 212.521C193.253 212.897 193.3 213.273 193.287 213.641C193.285 213.698 193.281 213.755 193.277 213.812C193.877 213.801 194.464 214.053 195.022 214.759C195.248 214.687 195.493 214.678 195.734 214.756C197.202 215.226 197.439 216.838 197.715 218.189C198.001 219.584 198.125 221.013 198.127 222.435C198.127 222.944 197.836 223.587 197.341 223.805C196.412 224.214 195.411 224.483 194.449 224.855C193.727 225.134 193.002 225.398 192.271 225.645C192.677 226.353 192.808 227.338 193.027 228.084C193.372 229.249 193.648 230.418 193.881 231.61C195.457 239.715 196.549 247.907 198.024 256.029C198.761 260.098 199.619 264.139 200.494 268.18C200.924 270.166 201.383 272.149 201.875 274.123C202.137 275.175 202.41 276.228 202.691 277.274C202.772 277.58 202.855 277.884 202.939 278.189L203.086 278.722V278.722C203.407 278.899 203.682 279.168 203.872 279.535C204.567 280.88 204.167 282.395 202.834 283.152C201.385 283.976 199.655 283.198 198.856 281.86C198.294 280.916 198.11 279.664 197.834 278.614C197.521 277.435 197.223 276.249 196.936 275.063C194.984 267.008 193.677 258.812 192.691 250.585L192.622 249.997C192.121 245.762 191.637 241.516 191.324 237.261C191.17 235.171 191.048 233.081 190.972 230.986C190.934 229.908 190.995 228.824 191.056 227.748C191.084 227.277 191.124 226.803 191.139 226.332L191.143 226.265C191.147 226.217 191.153 226.155 191.157 226.089L191.162 226.009C189.704 226.465 188.225 226.846 186.732 227.167C183.554 227.854 180.303 228.237 177.06 228.042C177.512 233.415 178.101 238.774 178.925 244.098C179.72 249.226 180.636 254.342 181.672 259.428C182.189 261.983 182.749 264.532 183.339 267.072C183.655 268.429 184.017 269.777 184.302 271.141C184.471 271.952 184.524 272.63 184.184 273.389C184.558 274.41 184.891 275.435 185.218 276.401L185.316 276.689C185.895 278.379 186.993 280.108 185.846 281.769C185.253 282.627 184.285 283.118 183.311 283.147C183.294 283.158 183.275 283.171 183.256 283.181C182.732 283.462 182.128 283.517 181.553 283.397C180.681 283.568 179.806 283.733 178.929 283.883C176.764 284.257 174.588 284.565 172.408 284.826C168.256 285.32 164.077 285.591 159.901 285.741C144.609 286.292 129.301 285.324 114.003 285.603C106.209 285.745 98.4153 286.096 90.6343 286.561C86.7512 286.793 82.866 287.043 78.9808 287.235L77.7782 287.294C74.3037 287.46 70.8267 287.588 67.3547 287.334C67.2871 287.33 67.2343 287.302 67.1984 287.265C66.0005 287.129 64.7965 286.026 64.9167 284.752C65.4343 279.324 65.9519 273.897 66.4716 268.467C67.3949 258.794 68.3266 249.12 69.2688 239.448L69.405 238.052C69.7216 234.793 70.0238 231.527 70.1773 228.255C69.404 228.201 68.6331 228.131 67.8618 228.046C59.505 227.131 51.4937 224.602 43.8016 221.281L43.4899 221.146C42.797 220.843 42.0385 220.541 41.2611 220.218C41.2739 221.695 41.2251 223.175 41.2188 224.637C41.2082 227.066 41.2272 229.494 41.2336 231.92C41.2484 236.921 41.4385 241.923 41.6878 246.916C42.1251 255.733 42.6385 264.538 43.416 273.334C43.6125 275.547 43.8789 277.756 44.0667 279.969C44.1789 281.273 43.9103 282.359 42.7169 283.044C42.1294 283.382 41.6751 283.24 41.092 282.968C39.6681 282.3 39.628 280.721 39.4927 279.347C39.3894 278.312 39.2942 277.276 39.2012 276.238C39.0028 274.026 38.8315 271.813 38.692 269.595C38.1408 260.786 37.9801 251.986 38.3603 243.166C38.5369 239.041 38.7918 234.907 39.1301 230.789L39.2096 229.839C39.4885 226.548 39.6681 223.094 40.2449 219.783C37.9188 218.751 35.6139 217.439 34.5449 215.257C33.1591 212.425 34.6822 210.003 36.8519 208.336C36.8308 208.055 36.8519 207.776 36.9111 207.522C37.5343 204.823 38.578 202.156 39.5857 199.582C40.6019 196.995 41.7237 194.448 42.9575 191.956C47.9096 181.974 54.6744 172.852 62.7385 165.167C66.7442 161.351 71.128 157.823 75.8075 154.864C78.1273 153.4 80.5061 152.047 82.9695 150.842L83.3337 150.665C85.0486 149.832 86.9719 148.947 88.8789 148.484C89.0773 148.336 89.278 148.196 89.4808 148.063C90.2308 147.564 91.2491 147.925 91.6928 148.638C91.9085 148.471 92.1576 148.323 92.4428 148.19L92.7247 148.061C94.4357 147.29 96.4903 146.569 98.3477 147.076C99.5012 147.391 100.41 148.24 100.818 149.323C101.753 148.828 102.672 148.319 103.57 147.695C105.013 146.698 106.321 145.459 107.496 144.159C109.851 141.545 111.562 138.482 112.327 135.035ZM194.064 217.462C193.904 217.508 193.735 217.525 193.559 217.504C193.876 217.541 193.241 217.729 193.067 217.818L193.054 217.825C192.737 218.007 192.419 218.182 192.095 218.352C191.341 218.749 190.57 219.106 189.786 219.442C188.242 220.1 186.647 220.605 185.009 220.975C183.408 221.336 181.728 221.547 180.087 221.581C178.988 221.602 177.685 221.552 176.548 221.228C176.679 223.221 176.825 225.212 176.987 227.201L179.232 226.686C181.477 226.171 183.72 225.643 185.935 225.001C187.597 224.519 189.237 223.955 190.857 223.346C191.706 223.027 192.549 222.689 193.382 222.325C193.796 222.144 194.184 221.929 194.568 221.711L194.897 221.524C194.821 220.634 194.681 219.761 194.478 218.882C194.373 218.417 194.193 217.94 194.064 217.462ZM40.3504 208.076C40.0652 209.002 39.6279 209.866 38.6307 210.075C38.2779 210.149 37.9824 210.109 37.7371 209.989L37.6783 210.107C36.8584 211.791 36.6176 213.568 38.504 214.864C39.3556 215.45 40.2828 215.957 41.242 216.411C42.9572 217.228 44.7839 217.884 46.5061 218.552L46.849 218.686C49.9293 219.895 53.0582 220.996 56.2357 221.917C59.4598 222.849 62.7406 223.597 66.0619 224.073C67.4624 224.272 68.8737 224.411 70.2873 224.502C70.3103 222.6 70.2997 220.696 70.2934 218.793C69.7906 218.73 69.292 218.662 68.8105 218.605C67.3441 218.434 65.8821 218.225 64.4286 217.965C61.3927 217.422 58.3885 216.671 55.4582 215.712C50.0286 213.93 44.9772 211.383 40.3504 208.076ZM99.8795 149.811C98.6457 148.505 96.2859 148.976 94.7966 149.61C94.3464 149.802 93.8922 149.997 93.4612 150.231L93.3777 150.278C92.8758 150.567 92.8783 150.739 93.1234 151.315C93.4422 152.074 93.8859 152.807 94.3084 153.511C96.1171 156.532 98.4978 159.161 101.217 161.382C110.846 169.244 124.68 172.017 136.722 169.384C142.502 168.121 148.077 165.573 152.331 161.393L152.719 161.008C154.434 159.29 156.789 156.805 156.624 154.26C156.546 153.036 155.546 152.966 154.526 152.729C154.108 152.632 153.708 152.495 153.362 152.3C153.641 153.503 152.156 155.291 151.389 156.041C149.781 157.616 147.846 158.846 145.799 159.765C141.903 161.517 137.665 162.346 133.446 162.87C128.658 163.466 123.768 163.413 119.016 162.532C114.882 161.765 110.806 160.313 107.249 158.051C105.618 157.015 104.01 155.834 102.649 154.458L102.36 154.166C101.378 153.17 100.235 151.967 99.6471 150.66C99.4232 150.662 99.2014 150.656 98.9795 150.641C98.8232 150.633 98.7389 150.411 98.895 150.328C99.0704 150.235 99.2457 150.143 99.4211 150.052C99.3917 149.954 99.3661 149.859 99.345 149.762C99.3281 149.68 99.4147 149.604 99.4908 149.65C99.5964 149.713 99.6978 149.781 99.7971 149.853C99.8246 149.84 99.8521 149.826 99.8795 149.811Z" fill="black"/>
<path fill-rule="evenodd" clip-rule="evenodd" d="M141.465 68.7232C117.151 67.8355 93.917 84.1832 86.0944 107.29C85.526 109.103 87.2948 110.796 89.0797 110.489C87.2543 119.684 91.2438 132.061 101.636 133.365C103.764 133.634 105.904 133.479 108.035 133.675C109.935 133.849 120.278 139.669 124.151 141.033C132.305 143.883 152.824 143.361 160.986 141.033C161.283 141.709 167.622 115.704 169.066 107.641C169.592 104.147 164.782 101.561 165.137 97.9607C165.592 93.3364 170.999 87.6982 169.343 83.2958C164.976 72.0908 152.304 68.9643 141.465 68.7232Z" fill="white"/>
<path fill-rule="evenodd" clip-rule="evenodd" d="M129.39 48.3543C130.482 48.4452 131.581 48.5995 132.66 48.8024C135.941 48.2655 139.336 48.8616 142.518 49.8951C149.969 52.315 157.142 56.5167 162.757 62.0012C165.647 64.8248 168.012 68.0775 169.467 71.8607C170.207 73.7797 170.623 75.8277 170.743 77.8799L170.757 78.1286C170.79 78.8095 170.806 79.626 170.724 80.4347C170.984 82.0674 171.216 83.7134 171.234 85.3647C171.242 86.1296 171.192 86.8932 171.099 87.6517L171.131 87.7238V87.7238C170.997 88.6294 170.836 89.5313 170.652 90.4284L170.606 90.4878C170.581 90.6702 170.552 90.8522 170.525 91.0342C170.425 91.4953 170.321 91.9555 170.211 92.4139C169.971 93.4066 169.707 94.3927 169.422 95.373C169.372 95.5448 169.42 95.6803 169.513 95.7693C169.305 96.5153 169.078 97.2559 168.826 97.9884C168.95 98.6295 169.075 99.2703 169.207 99.909C169.898 103.231 170.483 106.575 171.269 109.878C172.862 116.582 175.283 123.179 175.949 130.071C176.466 135.416 175.607 141.26 172.285 145.626C169.423 149.388 165.117 151.609 160.467 152.201C158.243 152.487 155.961 152.356 153.785 151.793L153.548 151.731C152.458 151.437 151.071 150.978 150.058 150.238C148.959 149.851 147.922 149.137 147.297 148.439C146.443 147.486 145.512 145.857 145.744 144.502C144.474 144.605 143.196 144.635 141.939 144.631C138.842 144.624 135.717 144.379 132.738 143.479C130.081 142.676 126.983 141.334 125.412 138.912C125.338 138.797 125.46 138.633 125.589 138.677C126.859 139.123 128.046 139.725 129.356 140.066C130.645 140.399 131.933 140.714 133.262 140.852C135.86 141.12 138.497 141.084 141.104 140.955L141.999 140.908C144.788 140.759 147.671 140.546 150.28 139.501C151.303 139.092 152.251 138.52 153.115 137.84L153.25 137.732C153.713 137.356 154.19 137.039 154.676 136.739C154.746 136.65 154.816 136.561 154.885 136.47C155.99 135.052 157.178 133.685 158.173 132.186C160.15 129.213 160.913 126.123 161.016 122.576C161.125 118.833 161.137 115.084 161.182 111.34L161.198 110.092C161.255 105.81 161.264 101.513 161.593 97.2417C161.745 95.2573 161.961 93.2821 162.293 91.3212L162.366 90.9012L162.903 87.8768C163.032 87.1483 163.108 86.3976 163.273 85.6722C163.087 85.3679 162.873 85.0749 162.624 84.796C162.395 84.5387 162.162 84.2891 161.93 84.0412L161.762 83.8933C161.379 83.5516 161.05 83.2254 160.742 82.7552L160.668 82.6389V82.6389C160.337 82.2393 160.024 81.8212 159.748 81.3619L159.698 81.2728V81.2728C159.629 81.1863 159.56 81.0997 159.489 81.0143C159.268 80.7482 159.036 80.4969 158.796 80.2562C157.955 81.8814 156.765 83.2892 155.081 84.1693C154.472 84.4876 153.729 84.215 153.529 83.5378C153.025 81.8284 152.26 80.2388 151.248 78.7993C149.557 81.6141 146.876 83.8157 143.716 84.89C142.927 85.1584 142.232 84.3299 142.417 83.59C142.987 81.3157 143.101 79.0029 142.766 76.7165C141.573 77.5691 140.343 78.372 139.08 79.1163C136.27 81.2897 133.292 83.2455 130.016 84.6499C129.26 84.9746 128.121 84.4291 128.465 83.4566C128.754 82.6379 128.992 81.8054 129.145 80.9505L129.178 80.7528C129.179 80.7469 129.18 80.741 129.181 80.7349C121.595 91.2034 103.199 101.291 101.787 101.389L101.748 101.389V101.389C102.63 102.232 103.342 103.273 103.808 104.469C104.297 105.726 102.302 106.273 101.787 105.071L101.77 105.031C100.977 102.992 99.0147 101.531 96.8798 101.186C95.5894 101.42 94.3698 102.042 93.5376 102.986C91.9003 104.844 91.8855 107.084 93.0031 109.198L93.1671 109.506C93.7721 110.635 94.4094 111.766 94.7503 113.006C95.1665 114.528 94.8517 116.071 95.1242 117.591L95.139 117.671C95.2682 118.347 95.5472 119.115 96.3517 118.931C96.4138 118.916 96.4738 118.897 96.5336 118.876C96.7032 119.012 96.9073 119.123 97.1617 119.198C97.7845 119.379 98.4726 119.291 99.0925 119.144C99.6912 119.003 100.273 118.781 100.832 118.521C100.894 118.674 100.932 118.834 100.936 118.988C100.955 119.774 100.63 120.421 100.129 120.947C100.928 121.957 101.61 123.069 102.379 124.1C103.484 125.58 104.614 127.027 105.816 128.429C107.067 129.889 108.43 131.269 109.843 132.573C110.834 133.486 112.471 134.463 113.093 135.788C113.807 136.01 114.413 136.557 114.635 137.457C115.038 139.089 115.157 142.912 114.84 144.572C114.525 146.216 113.325 147.241 111.998 148.107C111.631 148.348 111.214 148.323 110.876 148.143C110.578 148.433 110.243 148.699 109.858 148.936C108.438 149.813 106.788 150.132 105.153 150.316C102.945 151.022 100.564 151.208 98.2108 150.768C97.4418 150.859 96.6728 150.942 95.9017 151.009C88.0129 151.696 79.9932 151.111 72.2989 149.232C68.7686 148.369 65.435 146.802 62.3291 144.789C56.9761 141.319 54.7104 131.58 57.8165 122.27L58.0624 121.536C59.4621 117.376 60.9714 113.239 62.9946 109.358L63.2362 108.897C65.0959 105.358 67.1416 101.822 69.8587 98.8691C71.2193 97.3918 72.7996 96.0497 74.5848 95.1113C75.2625 94.7554 76.0537 94.5086 76.827 94.2285L76.8428 94.035V94.035L76.8595 93.8415C76.9104 93.2214 76.9753 92.6024 77.0589 91.9848C77.3712 89.6752 77.8119 87.3996 78.4379 85.1527C79.0647 82.9029 79.8354 80.6909 80.7627 78.547C82.3096 74.9701 84.2524 71.5771 86.495 68.3933C86.6551 68.0644 86.8176 67.7368 86.9841 67.4118C88.8749 63.7153 91.3235 60.1899 94.482 57.4614C98.1073 54.3292 102.474 52.3848 107.031 51.0194C111.757 49.6055 116.688 48.6375 121.613 48.312C124.205 48.1408 126.802 48.1387 129.39 48.3543ZM94.8266 107.74C97.1992 106.186 100.432 107.251 101.634 109.775C102.502 111.603 99.6309 112.632 99.1766 110.811C98.7245 108.984 96.783 107.676 94.9175 107.955C94.7886 107.976 94.7083 107.816 94.8266 107.74Z" fill="black"/>
<path fill-rule="evenodd" clip-rule="evenodd" d="M143.152 128.274C141.732 127.695 140.465 126.728 139.538 125.493C139.216 125.063 139.133 124.61 139.2 124.195C139.276 123.729 139.552 123.306 139.928 123.023C140.305 122.739 140.777 122.598 141.233 122.67C141.63 122.732 142.024 122.949 142.337 123.399L142.402 123.489C142.953 124.235 143.67 124.846 144.488 125.241C145.276 125.621 146.158 125.798 147.07 125.695C148.808 125.499 150.005 124.559 151.278 123.282C151.436 123.121 151.594 122.955 151.752 122.786C151.852 122.633 151.992 122.534 152.146 122.483C152.317 122.425 152.511 122.429 152.689 122.491C152.86 122.55 153.013 122.664 153.116 122.815C153.213 122.958 153.269 123.135 153.251 123.339C153.134 124.661 152.443 125.842 151.461 126.769C150.37 127.799 148.924 128.511 147.563 128.761C146.064 129.036 144.536 128.839 143.152 128.274V128.274ZM148.271 107.866C149.866 108.836 152.297 111.098 150.581 113.503C148.56 115.624 145.652 113.193 144.219 112.093C142.89 111.241 141.396 113.433 142.629 114.428C152.986 122.099 157.19 108.12 149.078 106.726C148.184 106.572 147.853 107.566 148.271 107.866ZM129.711 98.9429C129.887 96.7541 133.219 96.257 133.551 98.423C133.847 100.363 133.498 102.145 132.624 103.892C131.79 105.561 129.692 104.783 129.533 103.263C129.32 101.226 129.601 100.304 129.711 98.9429ZM155.076 97.9738C155.541 97.3652 156.212 96.9496 157.015 97.1845C159.526 97.9185 158.786 101.485 157.904 103.22C157.425 104.163 155.876 104.402 155.176 103.572C154.035 102.219 153.489 99.5156 154.939 98.1825C154.979 98.1136 155.023 98.044 155.076 97.9738ZM132.589 89.3654L132.986 89.2959C134.213 89.0836 135.738 88.8796 136.606 89.8665C137.067 90.3898 137.225 91.3624 136.606 91.8633C135.518 92.7446 134.314 92.4031 133.01 92.4777C131.935 92.5394 130.902 92.7174 129.867 93.0135C127.595 93.663 125.744 94.8486 123.804 96.1506C123.55 96.3213 123.29 95.9956 123.411 95.7574C124.531 93.563 126.701 91.7604 128.875 90.6616C130.036 90.0751 131.305 89.5885 132.589 89.3654ZM152.787 88.3823L153.091 88.4445C156.395 89.1353 160.687 90.5153 162.251 93.7615C162.311 94.2205 162.248 94.3189 162.197 94.3832L162.18 94.4046C162.137 94.4595 162.104 94.5351 161.905 94.5976C161.85 94.5844 161.794 94.5705 161.738 94.5557C161.02 94.3677 160.453 94.1087 159.904 93.84L159.308 93.5465C158.617 93.2076 157.92 92.881 157.181 92.6399C155.605 92.1254 153.983 91.7631 152.337 91.5696C151.98 91.5277 151.636 91.4072 151.365 91.2006C151.108 91.0046 150.911 90.7332 150.821 90.3724C150.705 89.9056 150.739 89.5521 150.989 89.1309C151.177 88.8146 151.447 88.5953 151.756 88.4694C152.071 88.3411 152.43 88.3108 152.787 88.3823Z" fill="black"/>
<path fill-rule="evenodd" clip-rule="evenodd" d="M166.085 109.758C164.662 111.67 162.025 112.279 159.593 112.068C154.347 111.563 152.696 105.603 152.524 100.97C156.042 101.96 152.226 94.949 164.252 94.178C168.491 93.8246 167.322 96.3858 169.195 98.2571C169.156 102.184 168.503 106.452 166.085 109.758M141.098 105.245C138.001 119.755 121.041 116.304 119.259 103.224C120.904 102.063 120.471 99.1943 122.515 98.1551C125.754 96.0847 129.803 96.1732 133.481 96.2219C138.183 96.545 139.523 98.4935 141.938 100.619C141.822 102.039 141.487 103.722 141.098 105.245M172.803 91.775C172.629 91.7461 172.455 91.7188 172.281 91.6932C172.145 91.6161 171.986 91.5567 171.8 91.521C171.377 91.4134 170.956 91.3409 170.536 91.3018C164.508 89.9447 150.563 91.8716 149.988 97.0176C148.068 97.6586 146.407 97.0846 144.182 97.1416C142.489 90.0603 113.211 91.0598 111.803 95.3291C111.797 95.3276 111.792 95.3263 111.786 95.3246C110.434 94.9057 108.439 95.0068 106.89 94.9404C103.584 94.8711 100.273 95.1659 97.0383 95.8636C90.9802 96.8267 82.7122 97.9543 86.9255 105.522C86.9264 105.524 86.927 105.525 86.9281 105.526L86.9287 105.526C87.6548 106.27 88.8872 105.671 88.933 104.663C87.5165 101.077 90.7159 100.647 93.1776 99.6165C99.3029 97.4151 105.539 97.1099 111.874 97.7909C112.351 98.3522 113.074 98.8417 113.838 99.0979C118.074 99.8013 115.842 102.944 118.519 103.402C118.027 114.358 131.325 120.339 139.029 113.137C142.106 110.128 142.839 105.671 143.552 101.653C143.929 101.568 144.169 101.362 144.309 101.089C145.216 100.183 145.786 99.3466 147.579 99.0979C149.373 98.8493 150.754 99.3483 150.94 99.5011C150.987 99.596 151.038 99.6911 151.097 99.7862C151.179 99.9281 151.29 100.041 151.417 100.13C149.646 111.041 158.113 117.941 166.661 112.282C170.375 108.787 171.159 103.436 171.315 98.66C171.818 98.356 172.137 97.767 171.962 97.0264C171.722 96.0056 172.286 95.1217 173.183 94.6779C174.348 94.1016 174.142 91.9967 172.803 91.775" fill="black"/>
</svg>
